<?xml version="1.0" encoding="UTF-8"?>
<svg fill="none" viewBox="0 0 70 70" xmlns="http://www.w3.org/2000/svg"><defs><linearGradient id="d" x1="25.161" x2="45.217" y1="13.686" y2="13.686" gradientUnits="userSpaceOnUse"><stop stop-color="#FF318C" offset="0"/><stop stop-color="#FB348C" offset=".149"/><stop stop-color="#F03C8C" offset=".285"/><stop stop-color="#DE4A8C" offset=".416"/><stop stop-color="#C45D8B" offset=".543"/><stop stop-color="#A2778B" offset=".669"/><stop stop-color="#79958A" offset=".793"/><stop stop-color="#49B98A" offset=".913"/><stop stop-color="#21D789" offset="1"/></linearGradient><linearGradient id="c" x1="17.131" x2="6.836" y1="8.883" y2="77.965" gradientUnits="userSpaceOnUse"><stop stop-color="#21D789" offset=".091"/><stop stop-color="#009AE5" offset=".903"/></linearGradient><linearGradient id="b" x1="63.836" x2="-6.583" y1="6.492" y2="80.865" gradientUnits="userSpaceOnUse"><stop stop-color="#21D789" offset=".091"/><stop stop-color="#009AE5" offset=".903"/></linearGradient><linearGradient id="a" x1="42.791" x2="66.875" y1="51.126" y2="54.551" gradientUnits="userSpaceOnUse"><stop stop-color="#21D789" offset=".091"/><stop stop-color="#009AE5" offset=".903"/></linearGradient></defs><path d="M20 41.5 26.688 0l15.895 8.823L20 41.5Z" fill="url(#d)"/><path d="M26.688 39V0L6.49 12.76 0 51.48 26.688 39Z" fill="url(#c)"/><path d="M68.615 21 59.573 2.698l-16.99 6.125-17.427 18.52L0 51.48l22.677 16.48 28.583-25.74L68.615 21Z" fill="url(#b)"/><path d="M56.875 40.104 45.937 35l-19.14 20.234 14.692 10.974L58.99 70 70 45.062l-13.124-4.958Z" fill="url(#a)"/><path d="M56 14H14v42h42V14Z" fill="#000"/><path d="M34.417 48.65h-15.75v2.683h15.75V48.65Z" fill="#FFF"/><g fill="#FFF"><path d="M36 19.13h3.458v12.725h6.847v2.905H36V19.13ZM18 27.067c0-4.434 3.267-8.167 8.167-8.167 3.033 0 4.666.933 6.3 2.333l-2.1 2.567c-1.167-1.167-2.334-1.867-3.967-1.867-2.567 0-4.667 2.1-4.667 4.9 0 2.8 1.867 4.9 4.667 4.9 1.867 0 2.8-.7 4.2-1.866l2.1 2.333c-1.867 1.867-3.733 2.8-6.767 2.8C21.267 35 18 31.5 18 27.067Z"/></g></svg>
