<?xml version="1.0" encoding="UTF-8"?>
<svg fill="none" viewBox="0 0 70 70" xmlns="http://www.w3.org/2000/svg"><defs><linearGradient id="e" x1="64.084" x2="66.131" y1="26.335" y2="44.156" gradientUnits="userSpaceOnUse"><stop stop-color="#21D789" offset=".16"/><stop stop-color="#419FBC" offset=".54"/><stop stop-color="#6B57FF" offset="1"/></linearGradient><linearGradient id="d" x1="45.467" x2="50.644" y1="18.684" y2="5.439" gradientUnits="userSpaceOnUse"><stop stop-color="#6B57FF" offset="0"/><stop stop-color="#21D789" offset=".952"/></linearGradient><linearGradient id="c" x1="16.86" x2="21.888" y1="35.34" y2="57.248" gradientUnits="userSpaceOnUse"><stop stop-color="#6B57FF" offset="0"/><stop stop-color="#685CFB" offset=".022"/><stop stop-color="#4A91CA" offset=".281"/><stop stop-color="#34B7A7" offset=".506"/><stop stop-color="#26CE91" offset=".685"/><stop stop-color="#21D789" offset=".797"/></linearGradient><linearGradient id="b" x1="4.36" x2="65.7" y1="35.008" y2="68.875" gradientUnits="userSpaceOnUse"><stop stop-color="#21D789" offset=".075"/><stop stop-color="#6B57FF" offset=".887"/></linearGradient><linearGradient id="a" x1="4.735" x2="66.381" y1="26.84" y2="26.84" gradientUnits="userSpaceOnUse"><stop stop-color="#21D789" offset=".309"/><stop stop-color="#59A3B2" offset=".487"/><stop stop-color="#B74AF7" offset=".767"/><stop stop-color="#FF45ED" offset="1"/></linearGradient></defs><path d="M65.552 10.865 70 39.52l-8.24 4.812L56.5 26.5l9.052-15.635Z" fill="url(#e)"/><path d="M65.552 10.865 40.47 0l-7 5.833L45 17l20.552-6.135Z" fill="url(#d)"/><path d="M47.323 70 11 30.5.583 62.49 47.323 70Z" fill="url(#c)"/><path d="M54.5 45 0 32.302 47.323 70 54.5 45Z" fill="url(#b)"/><path d="M0 .51v31.792l60.74 20.854 4.812-42.291L0 .51Z" fill="url(#a)"/><path d="M56 14H14v42h42V14Z" fill="#000"/><path d="M34.417 48.65h-15.75v2.683h15.75V48.65ZM35.8 27.224c0-4.543 3.52-8.254 8.318-8.254 2.88 0 4.543.768 6.206 2.175l-2.175 2.688c-1.216-1.024-2.303-1.6-4.159-1.6-2.56 0-4.543 2.24-4.543 4.927v.064c0 2.88 1.984 4.99 4.799 4.99 1.28 0 2.367-.32 3.263-.959v-2.24H43.99v-3.007h6.846v6.847c-1.535 1.407-3.775 2.495-6.654 2.495-4.99 0-8.382-3.455-8.382-8.126ZM18.5 19.133h6.183c5.017 0 8.4 3.355 8.4 7.75s-3.383 7.865-8.4 7.865l-6.183.115v-15.73Zm3.5 3.123v9.485h2.683c2.8 0 4.784-1.851 4.784-4.627s-1.867-4.742-4.784-4.742L22 22.256Z" fill="#FFF"/></svg>
