<?xml version="1.0" encoding="UTF-8"?>
<svg fill="none" viewBox="0 0 70 70" xmlns="http://www.w3.org/2000/svg"><defs><linearGradient id="c" x1="68.929" x2="41.588" y1="39.874" y2="63.009" gradientUnits="userSpaceOnUse"><stop stop-color="#087CFA" offset="0"/><stop stop-color="#0D7BFA" offset=".023"/><stop stop-color="#5566F9" offset=".373"/><stop stop-color="#8A57F8" offset=".663"/><stop stop-color="#AB4EF7" offset=".881"/><stop stop-color="#B74AF7" offset="1"/></linearGradient><linearGradient id="b" x1="24.089" x2="40.706" y1="21.699" y2="2.794" gradientUnits="userSpaceOnUse"><stop stop-color="#087CFA" offset="0"/><stop stop-color="#0D7BFA" offset=".023"/><stop stop-color="#5566F9" offset=".373"/><stop stop-color="#8A57F8" offset=".663"/><stop stop-color="#AB4EF7" offset=".881"/><stop stop-color="#B74AF7" offset="1"/></linearGradient><linearGradient id="a" x1="9.725" x2="60.22" y1="61.15" y2="28.702" gradientUnits="userSpaceOnUse"><stop stop-color="#087CFA" offset="0"/><stop stop-color="#1598D3" offset=".102"/><stop stop-color="#23B6AA" offset=".225"/><stop stop-color="#2DCC8B" offset=".345"/><stop stop-color="#35DD74" offset=".462"/><stop stop-color="#39E767" offset=".572"/><stop stop-color="#3BEA62" offset=".67"/></linearGradient></defs><path d="M61.688 27.052 70 45.572 55.708 70 38.5 42l23.188-14.948Z" fill="url(#c)"/><path d="m44.5 44 11.208 26-22.093-7.583L44.5 44Z" fill="#B74AF7"/><path d="M49.292 19.76 44.77 0H19.615L0 30.042l5.688 13.78L0 56.438 49.292 37V19.76Z" fill="url(#b)"/><path d="m70 14.875-29.385 6.927L0 56.438 26.25 70l20.708-21.365L70 14.875Z" fill="url(#a)"/><path d="M56 14H14v42h42V14Z" fill="#000"/><path d="M34.417 48.65h-15.75v2.683h15.75V48.65ZM18 27.224c0-4.543 3.52-8.254 8.318-8.254 2.88 0 4.543.768 6.206 2.175l-2.175 2.688c-1.216-1.024-2.303-1.6-4.159-1.6-2.56 0-4.543 2.24-4.543 4.927v.064c0 2.88 1.984 4.99 4.799 4.99 1.28 0 2.367-.32 3.263-.959v-2.24H26.19v-3.007h6.846v6.847c-1.535 1.407-3.775 2.495-6.654 2.495-4.99 0-8.382-3.455-8.382-8.126ZM34.572 27.224c0-4.543 3.52-8.254 8.446-8.254 4.863 0 8.382 3.647 8.382 8.126v.064c0 4.479-3.52 8.19-8.446 8.19-4.863 0-8.382-3.647-8.382-8.126Zm13.18 0c0-2.751-1.983-4.99-4.798-4.99s-4.735 2.239-4.735 4.926v.064c0 2.687 1.984 4.99 4.799 4.99 2.815-.063 4.735-2.239 4.735-4.99Z" fill="#FFF"/></svg>
