<?xml version="1.0" encoding="UTF-8"?>
<svg fill="none" viewBox="0 0 70 70" xmlns="http://www.w3.org/2000/svg"><defs><linearGradient id="c" x1="5.174" x2="40.014" y1="39.889" y2="38.123" gradientUnits="userSpaceOnUse"><stop stop-color="#FC801D" offset=".091"/><stop stop-color="#B07F61" offset=".231"/><stop stop-color="#577DB3" offset=".409"/><stop stop-color="#1E7CE6" offset=".533"/><stop stop-color="#087CFA" offset=".593"/></linearGradient><linearGradient id="b" x1="61.991" x2="50.158" y1="36.915" y2="1.557" gradientUnits="userSpaceOnUse"><stop stop-color="#FE2857" offset="0"/><stop stop-color="#CB3979" offset=".078"/><stop stop-color="#9E4997" offset=".16"/><stop stop-color="#7557B2" offset=".247"/><stop stop-color="#5362C8" offset=".339"/><stop stop-color="#386CDA" offset=".436"/><stop stop-color="#2373E8" offset=".541"/><stop stop-color="#1478F2" offset=".658"/><stop stop-color="#0B7BF8" offset=".794"/><stop stop-color="#087CFA" offset="1"/></linearGradient><linearGradient id="a" x1="10.066" x2="53.876" y1="16.495" y2="88.96" gradientUnits="userSpaceOnUse"><stop stop-color="#FE2857" offset="0"/><stop stop-color="#FE295F" offset=".08"/><stop stop-color="#FF2D76" offset=".206"/><stop stop-color="#FF318C" offset=".303"/><stop stop-color="#EA3896" offset=".385"/><stop stop-color="#B248AE" offset=".553"/><stop stop-color="#5A63D6" offset=".792"/><stop stop-color="#087CFA" offset="1"/></linearGradient></defs><path d="M11.2 49.467.7 41.3 9 26l9.5 7.5-7.3 15.967Z" fill="url(#c)"/><path d="m70 18.667-1.167 40.6L41.767 70l-14.7-9.567 14.7-22.933L70 18.667Z" fill="#087CFA"/><path d="M70 18.667 55.5 33 37 15 48.067 1.167 70 18.667Z" fill="url(#b)"/><path d="M27.067 60.433 5.6 68.367 10.033 52.5l5.834-19.367L0 27.767 10.033 0l23.1 2.8L54.5 31l1 2-28.433 27.433Z" fill="url(#a)"/><path d="M56 14H14v42h42V14Z" fill="#000"/><g fill="#FFF"><path d="M27.137 22.143V19.25h-7.864v2.893h2.194v9.964h-2.194v2.87h7.864v-2.87H24.92v-9.964h2.217ZM34.697 35.21c-1.237 0-2.264-.233-3.08-.7a7.355 7.355 0 0 1-2.054-1.657l2.17-2.426c.444.49.91.886 1.354 1.166.466.28.956.42 1.516.42.654 0 1.167-.21 1.54-.63.374-.42.56-1.073.56-1.983V19.273h3.547v10.29c0 .934-.117 1.75-.373 2.45-.257.7-.63 1.284-1.097 1.75-.49.49-1.073.84-1.773 1.097-.7.233-1.47.35-2.31.35ZM34.417 48.65h-15.75v2.683h15.75V48.65Z"/></g></svg>
