<?xml version="1.0" encoding="UTF-8"?>
<svg fill="none" viewBox="0 0 70 70" xmlns="http://www.w3.org/2000/svg"><defs><linearGradient id="e" x1="24.999" x2="66.656" y1="27.046" y2="27.046" gradientUnits="userSpaceOnUse"><stop stop-color="#21D789" offset="0"/><stop stop-color="#07C3F2" offset="1"/></linearGradient><linearGradient id="d" x1="-24.559" x2="61.22" y1="59.081" y2="-4.241" gradientUnits="userSpaceOnUse"><stop stop-color="#FCF84A" offset=".011"/><stop stop-color="#A7EB62" offset=".112"/><stop stop-color="#5FE077" offset=".206"/><stop stop-color="#32DA84" offset=".273"/><stop stop-color="#21D789" offset=".306"/><stop stop-color="#21D789" offset=".577"/><stop stop-color="#21D789" offset=".597"/><stop stop-color="#20D68C" offset=".686"/><stop stop-color="#1ED497" offset=".763"/><stop stop-color="#19D1A9" offset=".835"/><stop stop-color="#13CCC2" offset=".904"/><stop stop-color="#0BC6E1" offset=".971"/><stop stop-color="#07C3F2" offset="1"/></linearGradient><linearGradient id="c" x1="9.33" x2="23.637" y1="77.654" y2="32.76" gradientUnits="userSpaceOnUse"><stop stop-color="#21D789" offset="0"/><stop stop-color="#24D888" offset=".16"/><stop stop-color="#2FD985" offset=".298"/><stop stop-color="#41DC80" offset=".427"/><stop stop-color="#5AE079" offset=".552"/><stop stop-color="#7AE46F" offset=".673"/><stop stop-color="#A1EA64" offset=".791"/><stop stop-color="#CFF157" offset=".904"/><stop stop-color="#FCF84A" offset="1"/></linearGradient><linearGradient id="b" x1="28.275" x2="59.409" y1="38.623" y2="-3.236" gradientUnits="userSpaceOnUse"><stop stop-color="#21D789" offset="0"/><stop stop-color="#23D986" offset=".093"/><stop stop-color="#2ADE7B" offset=".172"/><stop stop-color="#36E669" offset=".247"/><stop stop-color="#3BEA62" offset=".271"/><stop stop-color="#47EB61" offset=".35"/><stop stop-color="#67ED5D" offset=".494"/><stop stop-color="#9AF156" offset=".686"/><stop stop-color="#E0F64D" offset=".915"/><stop stop-color="#FCF84A" offset="1"/></linearGradient><linearGradient id="a" x1="75.889" x2="13.158" y1="43.95" y2="43.369" gradientUnits="userSpaceOnUse"><stop stop-color="#FCF84A" offset=".387"/><stop stop-color="#ECF74C" offset=".463"/><stop stop-color="#C1F451" offset=".611"/><stop stop-color="#7EEF5A" offset=".815"/><stop stop-color="#3BEA62" offset="1"/></linearGradient></defs><path d="M49 10.967 69.533 28l-7.466 14.934-12.134-3.267H39.2l9.8-28.7Z" fill="url(#e)"/><path d="M28.467 22.167 24.5 42.933l-.467 7.234-9.8 4.433L0 56l4.2-45.267L29.867 0l15.866 10.267-17.266 11.9Z" fill="url(#d)"/><path d="m28.467 22.167 1.866 40.366-6.3 7.467L0 56l19.6-29.4 8.867-4.433Z" fill="url(#c)"/><path d="M54.833 19.133H30.567L52.033 0l2.8 19.133Z" fill="url(#b)"/><path d="m70 62.533-21.467 7.234L20.3 61.833l8.167-39.666 3.266-3.034L49 17.5 47.6 35l13.767-5.367L70 62.533Z" fill="url(#a)"/><path d="M56 14H14v42h42V14Z" fill="#000"/><path d="m19.133 19.133h6.417c3.733 0 6.067 2.217 6.067 5.484 0 3.616-2.8 5.483-6.417 5.483h-2.683v4.667h-3.5v-15.634h0.116zm6.184 8.05c1.75 0 2.683-1.166 2.683-2.45 0-1.516-1.05-2.333-2.8-2.333h-2.683v4.783h2.8zm8.283-0.116c0-4.434 3.267-8.167 8.167-8.167 3.033 0 4.666 0.933 6.3 2.333l-2.1 2.567c-1.167-1.167-2.334-1.867-3.967-1.867-2.567 0-4.667 2.1-4.667 4.9s1.867 4.9 4.667 4.9c1.867 0 2.8-0.7 4.2-1.866l2.1 2.333c-1.867 1.867-3.733 2.8-6.767 2.8-4.666 0-7.933-3.5-7.933-7.933zm0.817 21.583h-15.75v2.683h15.75v-2.683z" fill="#FFF"/></svg>
